# xmcd CD database file
#
# Track frame offsets:
#	150
#	12222
#	25840
#	40232
#	52104
#	65985
#	78270
#	92195
#	117006
#	131262
#	143691
#	155100
#	168211
#	181257
#	194367
#	221533
#
# Disc length: 3139 seconds
#
# Revision: 0
# Processed by: cddbd v1.4PL0 Copyright (c) Steve Scherf et al.
# Submitted via: Feurio! 1.65 - http://www.feurio.com
#
DISCID=d90c4110
DTITLE=Jimmy Lunceford - For Dancers Only
DYEAR=2000
DGENRE=Blues
TTITLE0=For Dancers Only
TTITLE1=Harlem Shout
TTITLE2=Four Or Five Times
TTITLE3=Organ Grinder's Swing
TTITLE4=Margie
TTITLE5=Le Jazz Hot
TTITLE6=Tain't What You Do
TTITLE7=Blues In the Night
TTITLE8=Twenty-Four Robbers
TTITLE9=Cheatin On Me
TTITLE10=The Lonesome Road
TTITLE11=Mandy
TTITLE12=Baby, Won't you please come home
TTITLE13=Uptown Blues
TTITLE14=I'm Gonna Move To Outskirts of Town
TTITLE15=Back Door Stuff
EXTD=
EXTT0=
EXTT1=
EXTT2=
EXTT3=
EXTT4=
EXTT5=
EXTT6=
EXTT7=
EXTT8=
EXTT9=
EXTT10=
EXTT11=
EXTT12=
EXTT13=
EXTT14=
EXTT15=
PLAYORDER=
